<?xml version="1.0" standalone="no"?>
<!DOCTYPE svg PUBLIC "-//W3C//DTD SVG 1.1//EN" "http://www.w3.org/Graphics/SVG/1.1/DTD/svg11.dtd" >
<svg xmlns="http://www.w3.org/2000/svg" xmlns:xlink="http://www.w3.org/1999/xlink" version="1.1">
<metadata></metadata>
<defs>
<font id="madonnaregular" horiz-adv-x="1155" >
<font-face units-per-em="2048" ascent="1638" descent="-410" />
<missing-glyph horiz-adv-x="569" />
<glyph horiz-adv-x="0" />
<glyph horiz-adv-x="682" />
<glyph unicode=" "  horiz-adv-x="569" />
<glyph unicode="&#x09;" horiz-adv-x="569" />
<glyph unicode="&#xa0;" horiz-adv-x="569" />
<glyph unicode="0" horiz-adv-x="1608" d="M20 666v50q0 11 34 11q14 -26 14 -42v-8q0 -25 -14 -25q-34 2 -34 14zM20 795v33q0 31 25 31h14q8 0 12 -28q5 0 11 26l8 5h11q12 -4 12 -25v-6q0 -37 -20 -47h-8q-12 2 -12 39h-2q-14 -39 -20 -39h-6l-8 8l-3 -3h-8zM37 576v8q0 9 25 14h6q9 0 14 -28h3q6 0 8 20l11 8h6 q22 -16 22 -56v-3q0 -14 -8 -17h-6q-9 6 -25 37h-3q0 -31 -5 -31h-6q-33 0 -42 48zM40 924v3q8 56 31 56l16 3l9 -17h5l20 17h9l8 -9v-5q-14 -59 -25 -59h-9q-11 5 -11 14l3 28v3h-3q-11 -42 -31 -42h-14zM73 691v8q5 31 14 31h9q10 0 14 -31v-39l-9 -8h-8q-12 0 -20 39z M79 463v3l6 6h19l17 -14h6q1 10 11 17h6q30 -25 30 -43v-19l-5 -6h-6l-17 14h-2l-14 -14h-9q-31 0 -42 56zM82 1042v3q14 56 39 56h11q7 0 9 -25h3q10 28 28 28h2l6 -6v-8q-20 -57 -31 -57h-11q-6 0 -6 31l-22 -28zM130 688v14q0 22 14 28h11q19 -12 19 -36v-23 q0 -15 -14 -22h-11q-19 12 -19 39zM130 806v20q0 24 19 36h11q17 -9 17 -31q0 -50 -28 -50h-3q-16 10 -16 25zM138 351v3l6 5h16l20 -14h3q3 17 14 17q17 0 39 -50v-6l-5 -6h-3q-10 0 -23 12h-2l-12 -9h-11q-18 0 -42 48zM144 1154v6q30 48 47 48h6l14 -12l17 12h8l6 -6v-3 q0 -23 -42 -53h-3l-14 14l-28 -11h-6zM146 581q0 12 12 17h5q34 -9 34 -50v-3q0 -15 -14 -23h-11q-26 17 -26 59zM149 932v6q0 30 25 48h12l14 -14v-9q0 -30 -28 -53h-9q-14 7 -14 22zM183 458v11l8 8h6q30 0 36 -61l-8 -9h-14q-28 20 -28 51zM186 1045v5q0 30 31 54h11 l8 -9v-5q0 -32 -31 -57h-8zM200 685v14q0 22 17 31h8q31 -6 31 -45q0 -25 -23 -36h-14q-19 12 -19 36zM200 814v9q0 25 22 39h9q25 0 25 -34v-5q0 -36 -31 -42q-25 0 -25 33zM217 250v3l5 5h6q9 0 19 -8h3l14 11h6l28 -17q0 18 8 20h6q33 -21 42 -39v-14l-5 -6q-9 0 -34 20 h-6l-3 -17l-28 5l-5 -5h-6q-18 0 -50 42zM217 570v6q5 25 14 25h5q28 0 37 -48q0 -22 -17 -31h-14q-25 18 -25 48zM217 938q9 51 36 51h6q14 -8 14 -23v-11q-7 -45 -34 -45h-8q-14 6 -14 28zM222 1255v6q22 26 48 39h3l19 -5l26 5l2 -17l37 20l3 -3v-5q0 -25 -48 -51h-3 l-3 3v22h-2q-24 -22 -37 -22l-17 8q-3 -8 -17 -8h-2zM233 351v8l6 6q27 0 48 -56l-9 -9h-11q-31 26 -34 51zM239 1149v14q0 18 34 45h14l5 -6v-3q-2 -23 -39 -56h-8zM247 455v3q0 15 12 19h5q29 0 40 -50q0 -15 -12 -20h-16q-29 18 -29 48zM250 1053v3q9 48 37 48h3 q19 0 19 -20q0 -37 -42 -51h-5q-12 5 -12 20zM284 699q5 31 28 31h11q26 -18 26 -45v-3q0 -17 -26 -36h-5q-34 0 -34 53zM284 817v11q8 34 31 34h5q23 0 29 -31v-8q-7 -42 -34 -42h-11q-20 12 -20 36zM292 354l12 11h5q42 -17 42 -48v-8q-2 -9 -16 -9q-30 0 -43 54zM298 567 v3q0 22 17 31h11q28 0 37 -45v-3q-7 -31 -28 -31h-3q-27 0 -34 45zM298 1160v3q0 30 42 47h6l11 -11q0 -37 -45 -56h-6q-8 3 -8 17zM301 938v6q6 45 34 45h2q22 0 26 -29v-2q0 -30 -31 -48h-17q-14 6 -14 28zM309 166v2l6 6h3l22 -6l6 6l28 -11q5 13 11 14h6q24 -20 33 -20 l-2 9q4 11 8 11l51 -25v19l5 6h3q20 0 45 -37v-8l-6 -6h-5l-45 23v-17l-6 -6l-34 14l-11 -11l-22 9l-40 -6h-5q-25 0 -51 34zM315 1340q30 34 59 39l42 -6l22 6l3 -17h6l22 17h12q5 0 5 -17h3q25 17 34 17h8l6 -6v-8q-31 -37 -48 -37l-6 6v6l3 19h-3q-34 -28 -45 -28 q-5 0 -5 14l-9 3q-23 -17 -33 -17q-6 11 -14 11q-15 -8 -28 -8h-29zM326 452v6q0 15 11 19h12q30 0 39 -45v-2q0 -26 -23 -26h-2q-28 0 -37 48zM329 1045v14q8 47 36 47h12q14 -7 14 -22v-8q0 -27 -40 -43h-2q-16 0 -20 12zM354 261l3 3h8q22 0 45 -45v-8l-5 -6h-14 q-37 28 -37 56zM357 1250v5q0 26 45 48h8l6 -6v-11q-18 -29 -39 -42h-14zM365 348v6l12 11h8q42 -13 42 -50q-4 -15 -19 -15h-3q-31 0 -40 48zM368 1165v3q14 42 42 42h9l11 -11v-8q0 -22 -36 -48h-12q-14 7 -14 22zM382 685v9q4 36 28 36h6q31 0 36 -42q0 -31 -33 -39h-6 q-23 0 -31 36zM382 820v3q5 42 31 42h6q27 0 33 -42v-3q-11 -39 -36 -39h-11q-23 14 -23 39zM394 564v9q3 28 25 28h3q35 0 39 -42v-3q-5 -36 -31 -36h-3q-27 0 -33 44zM394 941v5q6 43 33 43h9q22 0 28 -31v-9q-12 -39 -40 -39h-11q-19 14 -19 31zM416 449v6q0 22 22 22h6 q31 0 39 -45q-3 -28 -25 -28h-3q-31 0 -39 45zM416 1064q11 40 39 40h6q22 0 22 -23v-5q0 -33 -39 -43h-3q-25 0 -25 31zM419 98l3 3h53l20 -6l14 9h2q9 0 26 -11l17 11h2l34 -14l14 14q20 0 39 -25v-9l-8 -8q-10 0 -31 17l-14 -14h-3l-22 8l-17 -6h-79q-50 16 -50 31z M419 250v8l5 6h6q22 0 45 -39v-12q-3 -8 -17 -8h-8q-16 0 -31 45zM422 1253v5q0 28 45 45h5l9 -8v-6q0 -21 -43 -45h-8zM424 1410v3q0 12 57 25h42l17 -3l16 6h3l14 -9l17 6h3l17 -11l33 16l3 -2v-14q-17 -22 -31 -28h-5q-6 0 -11 16h-6l-34 -14q-5 13 -11 14l-23 -14h-11 l-5 6l-14 -3h-65zM447 343v8q7 14 22 14h3q28 0 39 -42v-8q-7 -17 -22 -17q-29 0 -42 45zM452 1154v11q10 45 37 45h3q22 0 22 -22v-3q0 -27 -39 -42h-3q-15 0 -20 11zM489 250v3q5 11 20 11q39 -12 39 -39v-6l-14 -14h-3q-35 0 -42 45zM489 691v5q7 34 34 34h2 q40 -5 40 -39v-6q-7 -36 -34 -36h-3q-35 0 -39 42zM489 823v3q11 39 39 39h12q25 -17 25 -42q0 -31 -37 -42h-5q-34 6 -34 42zM495 1255v6q3 38 42 42h3l14 -14v-11q-10 -19 -37 -34h-11zM500 562v11q4 28 28 28h6q39 -12 39 -39v-9q-6 -31 -31 -31h-8q-30 0 -34 40z M500 938v8q6 43 34 43h6q33 -7 33 -34v-3q0 -32 -39 -42h-14q-20 10 -20 28zM517 447v2q0 28 23 28h8q31 0 39 -45q-4 -28 -36 -28q-34 6 -34 43zM517 1062v2q4 38 42 42q23 0 28 -30q-5 -43 -36 -43h-9q-21 0 -25 29zM537 45l3 3h123l23 -6l14 9h2q11 0 23 -12h6l11 9h11 l11 -11v-6l-3 -14l31 -6l31 6l-8 11v11l8 9h14l6 -6v-8l-11 -17l19 -3q1 37 17 37q9 0 25 -12l17 12h9l8 -9l73 6h31l20 -3v-6q-24 -17 -118 -17q-33 -22 -45 -22h-180q-53 25 -73 25h-45q-38 0 -53 20zM540 157v11l8 9h6q36 -9 36 -37v-5l-8 -9h-3q-21 0 -39 31zM540 340v3 q0 22 22 22h8q34 -7 34 -34v-5q0 -16 -20 -28h-8q-31 0 -36 42zM540 1168v3q11 39 39 39h5q23 0 23 -22v-9q0 -30 -39 -36h-3q-25 4 -25 25zM545 1337v11q7 15 37 34h8l6 -6v-8q0 -20 -28 -37h-17zM545 1458v2l51 28l31 -5q29 0 78 19h169q55 -22 76 -22h44q48 -9 48 -17v-3 l-28 -2h-59l-31 2l-17 -5h-5l-14 8l-14 -8h-3q-25 3 -25 31h-12q9 -11 9 -20v-3l-9 -8h-11q-5 0 -11 19l3 14l-14 3v-3l3 -11v-11l-12 -11h-5l-9 8v25h-8q0 -23 -17 -33h-8l-14 8l-23 -8l-14 5l-56 -5h-73zM570 242q0 15 14 22h12q24 0 33 -37v-8q-7 -14 -22 -14h-8 q-29 16 -29 37zM573 1255v12q10 36 34 36h6q19 0 19 -20v-2q-11 -37 -36 -37h-3q-15 0 -20 11zM607 691v3q4 36 34 36h11q30 0 36 -42v-6q0 -26 -36 -33h-9q-30 0 -36 42zM610 157v14l5 6h9q19 0 33 -25v-14l-11 -12h-14q-22 13 -22 31zM610 817v9q4 39 31 39h11 q29 0 34 -39v-6q-6 -39 -34 -39h-11q-26 0 -31 36zM610 1337v8q9 37 33 37h9l11 -12v-5q0 -29 -39 -34h-9zM613 564v3q6 34 33 34h9q30 0 36 -42q-12 -39 -36 -39q-35 0 -42 44zM615 944v11q0 29 37 34h5q29 0 34 -43q0 -24 -39 -36h-6q-23 0 -31 34zM624 444v5q0 23 31 28 h5q37 -9 37 -36v-6q0 -23 -31 -31h-6q-26 0 -36 40zM624 1067v3q0 31 42 36q23 0 31 -33v-6q0 -30 -40 -36h-2q-26 0 -31 36zM638 334v6q3 25 25 25h6q36 -4 36 -34v-5q-5 -28 -28 -28h-11q-28 17 -28 36zM641 1168v6q0 36 31 36h8q28 -3 28 -28v-5q0 -24 -36 -34h-6 q-25 4 -25 25zM652 87v11l5 6h6q16 0 28 -20v-14l-5 -5h-9q-13 6 -25 22zM655 1404v6q0 17 25 31h8l6 -6v-14q-16 -22 -31 -22h-3zM657 239v3q0 22 23 22h6q30 -5 30 -31v-11l-16 -17h-17q-26 14 -26 34zM657 1264v5q0 17 29 34h8q15 0 25 -17v-8q-9 -37 -33 -37 q-17 0 -29 23zM680 157v6l11 11h14q26 -4 26 -25v-3q0 -20 -20 -20h-3q-22 0 -28 31zM683 1340v8q0 22 19 34h9q22 0 22 -23v-8q-13 -20 -31 -20h-11zM708 90v8l6 6h8q25 -4 25 -25v-3l-11 -11h-3q-25 3 -25 25zM708 1413v8q12 20 28 20h3l11 -12v-2q0 -22 -28 -26h-3z M733 682v9q0 33 37 42h5q43 -13 43 -39v-3q0 -32 -40 -42h-11q-34 6 -34 33zM733 823v5q7 34 34 34h14q37 -9 37 -36v-3q0 -35 -45 -42h-3q-31 0 -37 42zM736 562v5q7 34 34 34h5q40 -5 40 -34v-8q-12 -39 -40 -39h-5q-34 6 -34 42zM736 944v11q7 34 34 34h11q34 -7 34 -34 v-9q0 -27 -40 -36h-8q-23 0 -31 34zM739 438v6q0 33 34 33h8q34 -6 34 -33v-9q0 -26 -40 -31h-2q-34 9 -34 34zM739 1070v3q0 24 36 33h3q37 -9 37 -36v-6q0 -26 -40 -31h-5q-26 0 -31 37zM745 331v6q0 25 33 28h3q15 0 34 -25v-9q0 -27 -42 -33h-6q-22 16 -22 33zM745 1171 v6q2 33 28 33h5q37 -5 37 -31v-2q0 -23 -34 -34h-6q-30 6 -30 28zM750 233v6q4 25 25 25h3q34 -3 34 -28q0 -23 -31 -31q-31 6 -31 28zM750 1269q3 34 28 34h3q23 0 31 -31v-8q-11 -20 -34 -20h-3q-25 4 -25 25zM756 152q3 25 25 25q28 -4 28 -25q-4 -26 -25 -26h-3 q-25 4 -25 26zM759 1354v5q0 20 19 20h9q22 0 22 -23q0 -25 -31 -25h-5q-14 7 -14 23zM767 84v11l8 9h17l14 -14v-11q-7 -14 -22 -14h-6q-11 4 -11 19zM767 1413v14l11 11h11q17 -2 17 -9v-5q0 -15 -14 -23h-5q-15 0 -20 12zM778 28v14l6 6h14l6 -6v-3q0 -15 -12 -19h-5z M826 84v6l14 14h20l5 -6v-17q-7 -16 -22 -16h-6q-11 4 -11 19zM826 1424v5l11 12h9q13 -7 19 -20v-8l-11 -12h-6q-22 0 -22 23zM834 149q6 28 28 28h9q14 -7 14 -23t-23 -28h-5q-23 0 -23 23zM834 1348v20l12 11h11q28 -4 28 -25v-9l-14 -14h-11q-16 0 -26 17zM843 1278 q3 25 25 25h6q22 0 28 -31v-11q-10 -17 -25 -17h-9q-25 14 -25 34zM846 227v9q5 28 28 28h3q28 -4 28 -25v-3q-5 -31 -31 -31h-6q-22 0 -22 22zM851 326v11q0 22 31 28h9q28 -4 28 -28v-6q0 -28 -40 -33h-2q-22 0 -26 28zM851 1177v8q0 16 20 28h11q25 0 37 -39v-3 q0 -25 -34 -28h-3q-23 0 -31 34zM857 435v9q7 33 34 33h5q34 -2 34 -28v-5q-5 -40 -39 -40h-3q-31 6 -31 31zM857 1067v6q3 33 28 33h8q37 -9 37 -36v-3q-5 -36 -31 -36h-8q-25 0 -34 36zM860 562v2q0 31 42 37q36 -5 36 -34v-8q-11 -39 -39 -39h-6q-26 0 -33 42zM860 946v9 q6 34 33 34h6q35 0 39 -43v-2q-6 -34 -33 -34h-3q-42 6 -42 36zM862 688v8q10 37 37 37h8q28 0 37 -45v-3q0 -27 -39 -36h-9q-30 0 -34 39zM862 823v5q0 30 40 37h3q31 0 39 -45v-3q-10 -36 -37 -36h-8q-30 0 -37 42zM879 1421v11l6 6q23 0 36 -20v-8l-8 -9h-3q-17 0 -31 20 zM882 73v11q6 11 23 20h14l5 -6v-11q-17 -22 -33 -22zM907 1362v8l9 9h11q23 0 31 -31v-6l-11 -11h-9q-31 5 -31 31zM910 135v11q0 23 31 31h9l11 -11v-6q0 -23 -34 -34h-8zM927 1435l6 6h3q9 0 28 -14h2l9 11l3 3h8l20 -12l14 9h3l22 -6l6 6h56q26 0 62 -28q0 -9 -12 -9 l-47 9l-17 -6l-17 6l-14 -9h-9l-28 14q-5 -12 -11 -14q-11 0 -31 17h-8v-14l-6 -5h-11q-31 19 -31 36zM930 1281q0 18 25 22q37 -9 37 -36v-6q-8 -17 -34 -17q-28 16 -28 37zM933 70v9q14 18 28 25h11q7 0 8 -20h3q31 20 40 20l11 -14l31 14h3l14 -9l25 9l17 -6l47 6l3 -3 v-6q0 -12 -56 -28h-42l-25 6l-23 -6l-14 9l-20 -11h-5q-5 0 -11 16h-3l-25 -16h-12zM936 225v5q2 34 28 34h14l14 -14v-11q0 -23 -34 -34h-11q-11 5 -11 20zM952 329q10 36 34 36h6q28 -4 28 -25v-6q0 -26 -40 -36q-21 0 -28 31zM952 1185q0 16 20 28h6q27 0 42 -39v-3 q-6 -28 -28 -28h-3q-31 0 -37 42zM969 435v3q6 39 34 39h8q31 -4 31 -30v-3q0 -31 -45 -40q-22 0 -28 31zM969 1073v8q4 25 25 25h9q30 0 36 -42v-2q-4 -31 -30 -31h-6q-34 6 -34 42zM975 1368v5l8 9h6q36 -10 36 -34v-11l-5 -6h-6q-39 13 -39 37zM978 135v5q11 37 42 37h3 l8 -9q0 -20 -25 -39h-23zM980 559v5q10 37 37 37h8q24 0 31 -34v-5q-7 -36 -42 -42h-3q-26 0 -31 39zM980 949v9q6 31 29 31h8q39 -12 39 -40v-3q-9 -36 -33 -36h-6q-27 0 -37 39zM986 685v6q4 42 39 42h3q28 0 37 -45v-3q0 -30 -42 -36h-6q-31 0 -31 36zM986 820v6 q0 36 31 36h8q37 -9 37 -36v-6q0 -31 -34 -39h-5q-27 0 -37 39zM1014 1283v9q5 11 20 11h3q27 0 36 -45v-3q-4 -11 -20 -11q-39 12 -39 39zM1017 216v6q6 42 34 42h5q20 0 20 -20q0 -23 -39 -39h-9zM1037 1365v11q0 6 8 6l39 -20q0 18 9 20h3l36 -17q4 14 9 14l28 -9 q2 9 16 9l14 -6l17 6q20 0 59 -39v-3l-5 -6h-3l-25 6l-17 -6h-6l-17 11l-17 -11q-10 0 -30 17h-9q-3 -17 -8 -17h-3q-11 0 -42 25h-6v-22l-5 -6q-45 13 -45 37zM1039 132v11q0 15 45 34h3l6 -6v-11q-10 -18 -37 -34h-11zM1048 1185v9q0 19 20 19t44 -36v-14l-16 -17h-12 q-26 0 -36 39zM1051 320v3q5 42 36 42h11q17 -10 17 -25v-9q-9 -18 -36 -33h-6q-22 0 -22 22zM1073 1078q7 28 28 28h3q25 0 37 -39v-8q0 -26 -23 -26h-8q-32 0 -37 45zM1076 432v9q0 31 42 36h8q17 -9 17 -25v-8q-12 -40 -39 -40h-3q-21 0 -25 28zM1090 1286v9l8 8h6 q28 0 42 -42v-6l-11 -11h-9q-24 0 -36 42zM1093 216v6q0 28 42 42h8l9 -8q0 -35 -42 -51h-6zM1093 559q5 42 36 42h9q28 -6 28 -28v-6q-8 -45 -40 -45h-5q-25 0 -28 37zM1093 952v8q5 29 28 29h5q37 -8 37 -45v-3q0 -28 -34 -31h-3q-33 6 -33 42zM1096 132v3q0 18 36 42h11 q9 -2 9 -23h3q31 23 39 23l14 -14q17 11 25 11l14 -8l23 8h5l6 -6v-5q-31 -34 -73 -34h-14q-10 0 -20 9l-22 -9l-14 14h-3q-22 -17 -34 -17zM1101 817v9q10 39 34 39h3q28 0 36 -45q0 -31 -33 -39h-12q-28 17 -28 36zM1104 682v9q6 42 34 42h11q25 -15 25 -42v-3 q-5 -39 -33 -39h-9q-25 0 -28 33zM1135 1185v6q0 15 11 19h9q42 -14 42 -47v-6l-14 -14h-9q-28 0 -39 42zM1138 312v14q11 39 39 39h8l14 -14v-8q0 -27 -39 -43h-11zM1155 1292v5l5 6h6q48 -18 48 -45v-5l-9 -9h-6q-27 0 -44 48zM1160 213q0 36 45 51h6l8 -8v-3 q0 -25 -42 -48h-8zM1171 1078v6q4 21 12 22h11q29 0 42 -44v-3q-4 -28 -25 -28h-3q-27 0 -37 47zM1174 427v11q10 39 37 39h3q25 -3 25 -25q0 -30 -42 -48h-9q-14 8 -14 23zM1197 550v6q9 45 36 45h3q22 0 28 -31q-9 -48 -36 -48h-12q-19 13 -19 28zM1197 949v14q0 16 17 26 h8q35 0 39 -43v-5q-5 -31 -28 -31h-3q-24 0 -33 39zM1208 817v9q3 36 28 36h6q26 0 33 -36v-9q-5 -36 -31 -36h-8q-28 17 -28 36zM1211 682v9q4 39 31 39h11q25 -16 25 -45q-11 -36 -36 -36h-3q-25 0 -28 33zM1214 1191v11l8 8h6q31 0 42 -47v-9l-12 -11h-14q-30 22 -30 48z M1216 312v8q0 23 34 45h17l8 -8v-6q0 -37 -42 -51h-5zM1216 1281v16q0 6 9 6l31 -20h2q0 20 9 20h6q12 -11 19 -11l11 11h3q40 0 65 -50l-9 -6h-5l-31 8l-20 -11l-31 23h-2v-17l-6 -6h-14zM1222 211v5q0 25 42 48h9l5 -6v-8q0 -10 -45 -45h-5zM1258 1081v14l9 9h11 q28 0 37 -48v-11l-12 -12h-8q-27 0 -37 48zM1261 424v11q7 42 37 42h8l14 -14v-8q-11 -51 -39 -51h-8q-12 5 -12 20zM1267 208v11q0 9 42 42h6l16 -14l12 11h28l5 -5v-3q-30 -42 -70 -42l-8 8l-28 -11zM1281 1188v14l6 6h8q16 0 39 -34v-25l-5 -6h-3q-28 0 -45 45zM1287 306 v9q10 50 39 50h5l9 -8v-3q-14 -54 -42 -54h-6zM1287 960v3q0 16 16 26h9q28 0 36 -48v-3q0 -17 -17 -28h-14q-30 19 -30 50zM1289 553v6q12 42 37 42q25 -5 25 -28v-3q-9 -48 -36 -48h-9q-17 9 -17 31zM1306 680v11q0 27 23 42h8q25 0 28 -37v-5q-5 -42 -31 -42h-8 q-20 13 -20 31zM1306 817v14q0 31 25 31h12q22 -14 22 -39v-9q0 -17 -22 -33h-6q-24 0 -31 36zM1331 1087v8l9 9h8q30 0 40 -56v-6q-3 -9 -17 -9q-29 0 -40 54zM1334 416q10 61 40 61h5q11 -4 11 -19q-11 -54 -39 -54h-5zM1334 1202v3l6 5h8l17 -11l23 9h14q21 0 47 -54 l-5 -5h-34l-20 16h-2q-4 -19 -12 -19h-5q-37 33 -37 56zM1340 306q21 59 45 59q5 0 5 -8l3 -12l3 -2h3l22 19h12q22 0 22 -11q-22 -51 -62 -51h-5q-6 0 -9 17h-3q-22 -19 -30 -19zM1368 963q6 26 14 26h6q33 -9 33 -48v-9q0 -15 -14 -22h-5q-26 0 -34 53zM1371 550 q8 51 34 51h5q9 0 14 -25v-3q0 -31 -28 -51h-11q-14 7 -14 28zM1390 677v17q0 24 20 36h6q25 0 25 -34v-5q0 -27 -22 -42h-14q-15 6 -15 28zM1390 817v23q0 15 15 22h14q22 -15 22 -42v-6q0 -23 -17 -33h-14q-20 12 -20 36zM1393 1092v6l6 6h6q20 0 30 -28q6 0 9 28h5l14 -9 h3l9 6h3q22 -19 33 -59l-8 -3l-11 3l-14 -9h-6q-20 17 -20 26h-3q-5 0 -8 -20l-8 -6h-9q-17 0 -31 59zM1399 413v8q0 33 31 56h8q9 0 9 -36h2q0 13 26 34h3q36 0 36 -9v-3q-17 -53 -28 -53h-6l-8 6l-23 -9q-6 0 -8 23l-22 -23h-14zM1435 969v11l9 9h3q25 0 33 -54 q0 -21 -11 -25h-8q-26 17 -26 59zM1438 539v11q0 29 23 48h14l8 -8v-11q0 -41 -25 -57h-11q-9 3 -9 17zM1458 671q4 59 20 59h8q20 -13 20 -45q-7 -20 -23 -36h-11q-14 8 -14 22zM1458 842q6 18 14 20h8q26 -23 26 -39q0 -29 -20 -42h-8q-16 3 -20 61zM1483 972v2l11 12h3 q13 -12 20 -12l8 9h6q22 -36 22 -56v-6q0 -5 -8 -5l-20 8l-11 -11h-3q-28 35 -28 59zM1492 528v11q0 43 22 59h3q12 -11 19 -11l9 8h3l5 -5v-9q0 -38 -19 -53l-17 6l-23 -9zM1511 691q11 39 20 39h3l17 -11l16 6l6 -17q0 -54 -11 -54h-9l-8 6l-14 -8h-9q-11 0 -11 39z M1511 837q3 22 11 22l26 -8l5 6h3q12 0 17 -51q0 -15 -8 -17h-9l-8 6l-17 -11q-20 13 -20 53z" />
<glyph unicode="A" horiz-adv-x="1416" d="M-8 -4l686 1525l685 -1521h-60l-625 1396l-622 -1400h-64zM144 0l534 1219l549 -1219h-41l-508 1134l-495 -1134h-39zM292 0l386 920l423 -920h-38l-385 831l-348 -831h-38z" />
<glyph unicode="B" horiz-adv-x="1376" d="M-2 0v1501h651q674 0 674 -513q0 -138 -61 -237q61 -96 61 -247q0 -504 -674 -504h-651zM41 48h513q577 0 674 247q48 96 48 204q0 148 -76 247q76 118 76 252q0 320 -318 413q-115 43 -404 43h-513v-1406zM107 123v1259q794 -6 794 -28q75 -11 190 -86q109 -97 109 -275 q0 -153 -95 -242q95 -86 95 -252q0 -375 -546 -375zM141 152h4q136 -2 248 -2q540 0 540 40q86 0 196 119q42 88 42 152v71q0 136 -118 219q118 81 118 218v71q0 195 -218 271q-47 38 -732 38h-80v-1197zM221 233v1035h176q545 0 575 -52q114 -58 114 -209v-19 q0 -152 -119 -195q-72 -23 -204 -23h-340l-2 28h100l299 -5q203 0 233 129l9 80q0 151 -123 205q-80 33 -266 33h-423v-979h423q287 0 351 95q38 68 38 152q0 200 -242 200l-299 -5h-98l-1 29h341q250 0 294 -95q29 -48 29 -124v-19q0 -157 -124 -214q-83 -42 -247 -42z" />
<glyph unicode="C" horiz-adv-x="1302" d="M0 748v5q0 444 438 684q158 64 310 64h17q248 0 461 -175l-64 -35q-182 140 -374 140h-75q-285 0 -509 -269q-140 -199 -140 -409q0 -325 275 -549q189 -134 374 -134h75q178 0 386 140l52 -35q-213 -175 -461 -175h-17q-444 0 -684 438q-64 160 -64 310zM146 742v17 q0 373 391 561q113 35 205 35h11q165 0 333 -99l-29 -24q-127 94 -280 94h-41q-323 0 -520 -356q-41 -121 -41 -205v-41q0 -306 321 -490q121 -59 246 -59h35q151 0 292 94l17 -24q-168 -99 -333 -99h-11q-373 0 -561 391q-35 113 -35 205zM263 753q0 286 286 438 q105 47 204 47q86 0 217 -52v-6l-24 -18q-93 47 -204 47q-288 0 -427 -310q-23 -78 -23 -157q0 -299 327 -432l129 -18q103 0 198 47l24 -18v-6q-129 -52 -222 -52q-279 0 -438 280q-47 112 -47 210z" />
<glyph unicode="D" horiz-adv-x="1284" d="M0 14v1477l14 14h543q172 0 453 -230q209 -221 209 -495v-69q-33 -518 -557 -711h-648zM42 49h515h16q192 0 444 244q161 184 161 473q0 494 -593 683h-543v-1400zM122 161v1183l14 14h407q174 -20 408 -212q136 -171 156 -373v-41q-20 -430 -494 -585h-477zM157 189h393 q249 20 428 264q74 127 94 286v27q-20 379 -480 543h-435v-1120zM251 286v926l14 14h320q131 0 314 -209q69 -125 69 -258v-20v-18q0 -316 -341 -442l-56 -7h-306zM279 307h83h168q253 0 376 257q35 70 35 182v13q0 309 -328 425l-56 7h-278v-884z" />
<glyph unicode="E" d="M8 0v1501h1078v-68h-1008v-1365h1008v-68h-1078zM159 144v1213l927 -1v-38h-889v-533h880v-43h-880v-559h889v-38zM277 264v397h800v-38h-761v-320h770v-39h-809zM277 861l2 376h807v-39h-770v-294h761v-43h-800z" />
<glyph unicode="F" d="M8 0v1501h1078v-68h-1008v-1433h-70zM159 0v1357l927 -1v-38h-889v-533h880v-43h-880v-742h-38zM277 0v661h800v-38h-761v-623h-39zM277 861v376h809v-39h-770v-294h761v-43h-800z" />
<glyph unicode="G" horiz-adv-x="1321" d="M0 747v4q0 361 304 601q200 147 443 147h4q272 0 477 -177l-60 -34q-190 143 -406 143h-26q-306 0 -526 -263q-142 -190 -142 -406v-26q0 -306 263 -526q190 -142 405 -142h23q206 0 438 161l-4 526h-562v60h616v-612q-167 -113 -379 -184q-74 -19 -117 -19h-4 q-361 0 -601 304q-146 201 -146 443zM146 736v26q0 275 241 470q165 120 349 120h26q178 0 331 -109l-30 -11q-141 94 -312 94q-300 0 -496 -289q-82 -139 -82 -297q0 -312 308 -500q136 -67 278 -67q162 0 319 105v361h-447v33h480v-405q-178 -121 -345 -121h-30 q-274 0 -469 241q-121 165 -121 349zM263 747q0 263 244 421q114 64 214 64h49q88 0 199 -49l-22 -19q-106 42 -185 42h-26q-241 0 -390 -241q-53 -103 -53 -203v-26q0 -241 240 -390q104 -53 203 -53h19q101 0 210 41v192h-334v30h368v-229q0 -23 -169 -57l-64 -3h-45 q-197 0 -364 195q-94 147 -94 285z" />
<glyph unicode="H" horiz-adv-x="1324" d="M0 -2v1503h67v-1503h-67zM145 -2v1503h39v-736h875v736h40v-1503h-40v736h-875v-736h-39zM263 -2v644h718v-644h-39v606h-640v-606h-39zM263 857v644h39v-606h640v606h39v-644h-718zM1177 -2v1503h63v-1503h-63z" />
<glyph unicode="I" horiz-adv-x="386" d="M36 0v1501h41v-1501h-41zM155 0v1501h41v-1501h-41zM274 0v1501h65v-1501h-65z" />
<glyph unicode="J" horiz-adv-x="1324" d="M3 360q39 22 51 22q55 -97 138 -182q168 -145 403 -145q412 0 549 443q36 127 36 298v708h55v-734q0 -507 -345 -705q-135 -65 -295 -65h-11q-394 0 -581 360zM134 418q13 11 25 11q147 -262 440 -262q396 0 462 484q7 47 7 127v726h29v-719q0 -497 -345 -625 q-91 -22 -168 -22q-302 0 -450 280zM246 469l26 11q101 -186 320 -186q242 0 316 237q33 97 33 225v748h29v-744q0 -386 -255 -477q-53 -18 -127 -18q-230 0 -342 204z" />
<glyph unicode="K" horiz-adv-x="1166" d="M10 -2v1505h68v-1505h-68zM158 -2v1505h40v-657l658 655h48v-4l-706 -711l762 -782v-4h-48l-714 727v-729h-40zM277 -2v525h4l511 -519v-4h-48l-427 435v-437h-40zM277 1046v457h40v-365l372 363h48v-4l-456 -451h-4zM301 786l723 715h84v-4l-715 -711l767 -782v-4h-84z " />
<glyph unicode="L" horiz-adv-x="1078" d="M-5 0v1502h37v-1463l967 -2v-37h-1004zM113 117v1385h36v-1348h850v-37h-886zM230 235v1267h66v-1201h703v-66h-769z" />
<glyph unicode="M" horiz-adv-x="1725" d="M28 1v1504l795 -794l806 805v-1515h-43v1387l-763 -752l-753 752v-1387h-42zM166 1v1130l658 -635l687 658v-1153l-32 1v1077l-656 -636l-614 594l-1 -1036h-42zM293 1l1 772l529 -479l550 509l10 -802h-31l-10 728l-519 -478l-498 447v-697h-32z" />
<glyph unicode="N" horiz-adv-x="1424" d="M7 5l2 1496l1074 -828v828h48l1 -924l-1082 834v-1406h-43zM147 5v1210l1082 -864v1150h33l4 -1215l-1086 858l-6 -1139h-27zM273 922l1074 -847v1426h32l1 -1496l-1073 849v-849h-32z" />
<glyph unicode="O" horiz-adv-x="1519" d="M-2 730v45q0 395 400 646q172 84 330 84h45q395 0 646 -400q84 -172 84 -330v-45q0 -395 -400 -646q-172 -84 -330 -84h-45q-395 0 -646 400q-84 172 -84 330zM50 756q0 -442 452 -659q151 -45 245 -45q442 0 659 452q45 151 45 245q0 442 -452 659q-151 45 -245 45 q-442 0 -659 -452q-45 -151 -45 -245zM153 736v33q0 341 355 529q113 52 226 52h33q341 0 529 -355q52 -113 52 -226v-33q0 -341 -355 -529q-113 -52 -226 -52h-33q-341 0 -529 355q-52 113 -52 226zM179 756l6 -7v-26q0 -314 336 -490q94 -46 200 -46h20l6 -6l7 6h26 q314 0 490 336q46 94 46 200v20l6 6l-6 7v26q0 314 -336 490q-94 46 -200 46h-20l-6 6l-7 -6h-26q-314 0 -490 -336q-46 -94 -46 -200v-20zM282 749v7q0 311 330 445q67 20 135 20h7q311 0 445 -330q20 -67 20 -135v-7q0 -311 -330 -445q-67 -20 -135 -20h-7 q-311 0 -445 330q-20 67 -20 135zM315 723q0 -232 251 -368q72 -38 155 -38h59q232 0 368 251q38 72 38 155v59q0 232 -251 368q-72 38 -155 38h-59q-232 0 -368 -251q-38 -72 -38 -155v-59z" />
<glyph unicode="P" horiz-adv-x="1074" d="M0 0v1502l460 -1q675 0 675 -513q0 -297 -282 -383q-93 -36 -397 -36q-79 0 -173 2l2 43q112 -8 208 -7q429 0 528 153q66 107 66 238q0 320 -318 413q-114 43 -404 43h-317v-1454h-48zM119 0l5 1378l4 4h5l346 -4q532 0 532 -385q0 -218 -175 -285q-79 -34 -322 -34 q-101 0 -231 6l-2 24q100 -6 185 -6q441 0 488 148q29 72 29 123v71q-20 195 -219 271q-36 38 -531 38h-81v-1349h-33zM233 0l2 1264h292q264 0 337 -119q33 -60 33 -138v-19q0 -152 -118 -195q-73 -23 -205 -23h-294l-2 28h338h16q201 0 232 124l10 80q0 151 -124 205 q-80 33 -266 33h-223v-1240h-28z" />
<glyph unicode="Q" horiz-adv-x="1619" d="M0 736v5q0 456 437 693q156 68 308 68h17q377 0 624 -346q120 -194 120 -415q0 -156 -48 -240l-59 13q39 108 39 218v17q0 363 -330 587q-169 98 -342 98h-26q-324 0 -548 -291q-123 -183 -123 -381v-39q0 -288 248 -513q196 -157 441 -157q234 0 427 50l215 -102h-120 l-91 21q-196 -38 -436 -38q-405 0 -654 381q-99 185 -99 371zM146 749q0 312 286 514q158 93 321 93q343 0 543 -336q65 -146 65 -279q0 -116 -48 -223l-21 9q39 98 39 201v17q0 343 -343 535q-119 47 -226 47h-4q-334 0 -527 -338q-56 -126 -56 -227v-47q0 -208 176 -389 q183 -167 411 -167q222 0 410 69l396 -227h-60l-345 184q-188 -52 -401 -52h-17q-337 0 -531 330q-68 134 -68 286zM265 749q0 271 265 433q112 51 202 51h43q218 0 380 -213q85 -132 85 -279q0 -105 -55 -210l-18 9q43 107 43 192v21q0 278 -290 424q-96 30 -171 30 q-271 0 -415 -273q-39 -85 -39 -176v-30q0 -209 189 -359q124 -86 248 -86h43q206 0 362 98l596 -380h-53l-543 333q-161 -81 -388 -81q-261 0 -420 248q-64 117 -64 248z" />
<glyph unicode="R" horiz-adv-x="1420" d="M10 0v1502l660 -1q675 0 675 -513q0 -297 -276 -404q-106 -33 -147 -33l563 -551h-59q-482 457 -608 589v5h47q216 0 366 166q66 107 66 238q0 320 -318 413q-114 43 -404 43h-517v-1454h-48zM129 0l5 1378l4 4h5l546 -4q532 0 532 -385q0 -218 -175 -285 q-112 -48 -300 -48h-90v-4l667 -656h-40l-698 679v5h90q425 0 489 162q29 72 29 123v71q-20 195 -219 271q-36 38 -731 38h-81v-1349h-33zM243 0l2 1264h492q264 0 337 -119q33 -60 33 -138v-19q0 -152 -118 -195q-73 -23 -205 -23h-422l795 -766l-31 -4l-838 798h538h16 q201 0 232 124l10 80q0 151 -124 205q-80 33 -266 33h-423v-1240h-28z" />
<glyph unicode="S" horiz-adv-x="1144" d="M-20 1050v7q0 444 634 444h501l-36 -42h-401q-497 0 -606 -212q-50 -97 -50 -197q0 -318 409 -366q445 0 500 -99q36 -77 36 -134v-7q0 -251 -418 -251h-33h-339l36 40h324q280 0 345 84q47 50 47 116q0 12 -2 25q-10 176 -235 176h-134q-578 0 -578 416zM22 0l14 21h529 q458 0 578 310q14 32 14 92v56q0 239 -324 328q-113 27 -431 39q-148 15 -168 84q-21 0 -28 120v14q0 226 345 226h380l-14 -22h-317q-314 0 -352 -112l-21 -106q0 -152 125 -176q640 -10 756 -190q70 -116 70 -219v-21q0 -290 -296 -395q-154 -49 -331 -49h-529zM107 98 l14 22h388q535 0 535 345q0 282 -486 282q-451 0 -451 265v73q0 184 197 261q107 42 240 42h472l-14 -21h-402q-472 0 -472 -310v-14q0 -181 176 -247q85 -26 393 -32q243 -43 312 -123q56 -78 56 -176v-42q0 -226 -296 -303q-107 -21 -204 -21z" />
<glyph unicode="T" horiz-adv-x="1346" d="M-22 1432l1 70h1381v-70h-1382zM-21 1194l1 39l600 -1v-1231h-39v1192zM-21 1351h1382l-1 -38h-657v-1312h-42v1312h-681zM780 1v1231h581v-39h-538v-1192h-43z" />
<glyph unicode="U" horiz-adv-x="1380" d="M28 768v734h55v-703q0 -523 392 -705q127 -39 242 -39q482 0 572 603l8 157v687h55v-742q0 -541 -407 -721q-111 -39 -235 -39h-24q-471 0 -634 533q-24 139 -24 235zM169 736v766h31v-335l-7 -384q0 -439 344 -587l126 -24h86q294 0 407 353q24 117 31 266l-7 400v311 h31v-766q0 -414 -313 -564q-91 -31 -157 -31h-71q-340 0 -477 415zM294 752v750h32v-758q0 -361 305 -446h102q207 0 290 227q31 106 31 211v766h32v-734q0 -417 -282 -494l-87 -8h-23q-261 0 -368 282q-32 115 -32 204z" />
<glyph unicode="V" horiz-adv-x="1372" d="M3 1501h24l652 -1440l645 1436h30l-675 -1501zM125 1497h29l525 -1204l538 1204h31l-569 -1269zM273 1497h48l358 -911l395 911h48l-443 -1000z" />
<glyph unicode="W" horiz-adv-x="1659" d="M28 12v1504h42v-1387l753 752l763 -752v1387h43v-1515l-806 805zM166 386v1130h42l1 -1036l614 594l656 -636v1077l32 1v-1153l-687 658zM293 1516h32v-697l498 447l519 -478l10 728h31l-10 -802l-550 509l-529 -479z" />
<glyph unicode="X" horiz-adv-x="1221" d="M0 1501l54 -1l435 -743l-428 -757h-50l418 754zM164 1497v3h50l415 -700l403 700h54l-429 -753l429 -743v-4h-50l-411 693l-400 -693h-56l427 747zM318 1501l82 -1l232 -389l222 389h82v-3l-307 -522zM336 0l293 536l314 -536h-82l-236 400l-207 -400h-82zM754 747 l428 753h54l-422 -750l429 -750h-54z" />
<glyph unicode="Y" horiz-adv-x="1188" d="M-21 1491h55l427 -747v-744h-56v738zM142 1488l3 3h51l409 -702l400 702h55l-428 -750v-741h-60v741zM294 1488l3 3h81l228 -396l223 396h80v-3l-306 -526zM727 0v732l430 759h51l-418 -756v-735h-63z" />
<glyph unicode="Z" horiz-adv-x="1391" d="M-32 1l809 1222h-789v33l857 1l-807 -1223h1326v-33h-1396zM-12 1346v27h1140l-844 -1232h1080v-32l-1145 -5l838 1236zM-12 1460v43l1416 -2l-808 -1223h768v-49l-864 -1l813 1232h-1325z" />
<glyph unicode="a" horiz-adv-x="1416" d="M-8 -4l686 1525l685 -1521h-60l-625 1396l-622 -1400h-64zM144 0l534 1219l549 -1219h-41l-508 1134l-495 -1134h-39zM292 0l386 920l423 -920h-38l-385 831l-348 -831h-38z" />
<glyph unicode="b" horiz-adv-x="1376" d="M-2 0v1501h651q674 0 674 -513q0 -138 -61 -237q61 -96 61 -247q0 -504 -674 -504h-651zM41 48h513q577 0 674 247q48 96 48 204q0 148 -76 247q76 118 76 252q0 320 -318 413q-115 43 -404 43h-513v-1406zM107 123v1259q794 -6 794 -28q75 -11 190 -86q109 -97 109 -275 q0 -153 -95 -242q95 -86 95 -252q0 -375 -546 -375zM141 152h4q136 -2 248 -2q540 0 540 40q86 0 196 119q42 88 42 152v71q0 136 -118 219q118 81 118 218v71q0 195 -218 271q-47 38 -732 38h-80v-1197zM221 233v1035h176q545 0 575 -52q114 -58 114 -209v-19 q0 -152 -119 -195q-72 -23 -204 -23h-340l-2 28h100l299 -5q203 0 233 129l9 80q0 151 -123 205q-80 33 -266 33h-423v-979h423q287 0 351 95q38 68 38 152q0 200 -242 200l-299 -5h-98l-1 29h341q250 0 294 -95q29 -48 29 -124v-19q0 -157 -124 -214q-83 -42 -247 -42z" />
<glyph unicode="c" horiz-adv-x="1302" d="M0 748v5q0 444 438 684q158 64 310 64h17q248 0 461 -175l-64 -35q-182 140 -374 140h-75q-285 0 -509 -269q-140 -199 -140 -409q0 -325 275 -549q189 -134 374 -134h75q178 0 386 140l52 -35q-213 -175 -461 -175h-17q-444 0 -684 438q-64 160 -64 310zM146 742v17 q0 373 391 561q113 35 205 35h11q165 0 333 -99l-29 -24q-127 94 -280 94h-41q-323 0 -520 -356q-41 -121 -41 -205v-41q0 -306 321 -490q121 -59 246 -59h35q151 0 292 94l17 -24q-168 -99 -333 -99h-11q-373 0 -561 391q-35 113 -35 205zM263 753q0 286 286 438 q105 47 204 47q86 0 217 -52v-6l-24 -18q-93 47 -204 47q-288 0 -427 -310q-23 -78 -23 -157q0 -299 327 -432l129 -18q103 0 198 47l24 -18v-6q-129 -52 -222 -52q-279 0 -438 280q-47 112 -47 210z" />
<glyph unicode="d" horiz-adv-x="1284" d="M0 14v1477l14 14h543q172 0 453 -230q209 -221 209 -495v-69q-33 -518 -557 -711h-648zM42 49h515h16q192 0 444 244q161 184 161 473q0 494 -593 683h-543v-1400zM122 161v1183l14 14h407q174 -20 408 -212q136 -171 156 -373v-41q-20 -430 -494 -585h-477zM157 189h393 q249 20 428 264q74 127 94 286v27q-20 379 -480 543h-435v-1120zM251 286v926l14 14h320q131 0 314 -209q69 -125 69 -258v-20v-18q0 -316 -341 -442l-56 -7h-306zM279 307h83h168q253 0 376 257q35 70 35 182v13q0 309 -328 425l-56 7h-278v-884z" />
<glyph unicode="e" d="M8 0v1501h1078v-68h-1008v-1365h1008v-68h-1078zM159 144v1213l927 -1v-38h-889v-533h880v-43h-880v-559h889v-38zM277 264v397h800v-38h-761v-320h770v-39h-809zM277 861l2 376h807v-39h-770v-294h761v-43h-800z" />
<glyph unicode="f" d="M8 0v1501h1078v-68h-1008v-1433h-70zM159 0v1357l927 -1v-38h-889v-533h880v-43h-880v-742h-38zM277 0v661h800v-38h-761v-623h-39zM277 861v376h809v-39h-770v-294h761v-43h-800z" />
<glyph unicode="g" horiz-adv-x="1321" d="M0 747v4q0 361 304 601q200 147 443 147h4q272 0 477 -177l-60 -34q-190 143 -406 143h-26q-306 0 -526 -263q-142 -190 -142 -406v-26q0 -306 263 -526q190 -142 405 -142h23q206 0 438 161l-4 526h-562v60h616v-612q-167 -113 -379 -184q-74 -19 -117 -19h-4 q-361 0 -601 304q-146 201 -146 443zM146 736v26q0 275 241 470q165 120 349 120h26q178 0 331 -109l-30 -11q-141 94 -312 94q-300 0 -496 -289q-82 -139 -82 -297q0 -312 308 -500q136 -67 278 -67q162 0 319 105v361h-447v33h480v-405q-178 -121 -345 -121h-30 q-274 0 -469 241q-121 165 -121 349zM263 747q0 263 244 421q114 64 214 64h49q88 0 199 -49l-22 -19q-106 42 -185 42h-26q-241 0 -390 -241q-53 -103 -53 -203v-26q0 -241 240 -390q104 -53 203 -53h19q101 0 210 41v192h-334v30h368v-229q0 -23 -169 -57l-64 -3h-45 q-197 0 -364 195q-94 147 -94 285z" />
<glyph unicode="h" horiz-adv-x="1324" d="M0 -2v1503h67v-1503h-67zM145 -2v1503h39v-736h875v736h40v-1503h-40v736h-875v-736h-39zM263 -2v644h718v-644h-39v606h-640v-606h-39zM263 857v644h39v-606h640v606h39v-644h-718zM1177 -2v1503h63v-1503h-63z" />
<glyph unicode="i" horiz-adv-x="386" d="M36 0v1501h41v-1501h-41zM155 0v1501h41v-1501h-41zM274 0v1501h65v-1501h-65z" />
<glyph unicode="j" horiz-adv-x="1324" d="M3 360q39 22 51 22q55 -97 138 -182q168 -145 403 -145q412 0 549 443q36 127 36 298v708h55v-734q0 -507 -345 -705q-135 -65 -295 -65h-11q-394 0 -581 360zM134 418q13 11 25 11q147 -262 440 -262q396 0 462 484q7 47 7 127v726h29v-719q0 -497 -345 -625 q-91 -22 -168 -22q-302 0 -450 280zM246 469l26 11q101 -186 320 -186q242 0 316 237q33 97 33 225v748h29v-744q0 -386 -255 -477q-53 -18 -127 -18q-230 0 -342 204z" />
<glyph unicode="k" horiz-adv-x="1166" d="M10 -2v1505h68v-1505h-68zM158 -2v1505h40v-657l658 655h48v-4l-706 -711l762 -782v-4h-48l-714 727v-729h-40zM277 -2v525h4l511 -519v-4h-48l-427 435v-437h-40zM277 1046v457h40v-365l372 363h48v-4l-456 -451h-4zM301 786l723 715h84v-4l-715 -711l767 -782v-4h-84z " />
<glyph unicode="l" horiz-adv-x="1078" d="M-5 0v1502h37v-1463l967 -2v-37h-1004zM113 117v1385h36v-1348h850v-37h-886zM230 235v1267h66v-1201h703v-66h-769z" />
<glyph unicode="m" horiz-adv-x="1725" d="M28 1v1504l795 -794l806 805v-1515h-43v1387l-763 -752l-753 752v-1387h-42zM166 1v1130l658 -635l687 658v-1153l-32 1v1077l-656 -636l-614 594l-1 -1036h-42zM293 1l1 772l529 -479l550 509l10 -802h-31l-10 728l-519 -478l-498 447v-697h-32z" />
<glyph unicode="n" horiz-adv-x="1424" d="M7 5l2 1496l1074 -828v828h48l1 -924l-1082 834v-1406h-43zM147 5v1210l1082 -864v1150h33l4 -1215l-1086 858l-6 -1139h-27zM273 922l1074 -847v1426h32l1 -1496l-1073 849v-849h-32z" />
<glyph unicode="o" horiz-adv-x="1519" d="M-2 730v45q0 395 400 646q172 84 330 84h45q395 0 646 -400q84 -172 84 -330v-45q0 -395 -400 -646q-172 -84 -330 -84h-45q-395 0 -646 400q-84 172 -84 330zM50 756q0 -442 452 -659q151 -45 245 -45q442 0 659 452q45 151 45 245q0 442 -452 659q-151 45 -245 45 q-442 0 -659 -452q-45 -151 -45 -245zM153 736v33q0 341 355 529q113 52 226 52h33q341 0 529 -355q52 -113 52 -226v-33q0 -341 -355 -529q-113 -52 -226 -52h-33q-341 0 -529 355q-52 113 -52 226zM179 756l6 -7v-26q0 -314 336 -490q94 -46 200 -46h20l6 -6l7 6h26 q314 0 490 336q46 94 46 200v20l6 6l-6 7v26q0 314 -336 490q-94 46 -200 46h-20l-6 6l-7 -6h-26q-314 0 -490 -336q-46 -94 -46 -200v-20zM282 749v7q0 311 330 445q67 20 135 20h7q311 0 445 -330q20 -67 20 -135v-7q0 -311 -330 -445q-67 -20 -135 -20h-7 q-311 0 -445 330q-20 67 -20 135zM315 723q0 -232 251 -368q72 -38 155 -38h59q232 0 368 251q38 72 38 155v59q0 232 -251 368q-72 38 -155 38h-59q-232 0 -368 -251q-38 -72 -38 -155v-59z" />
<glyph unicode="p" horiz-adv-x="1074" d="M0 0v1502l460 -1q675 0 675 -513q0 -297 -282 -383q-93 -36 -397 -36q-79 0 -173 2l2 43q112 -8 208 -8q429 0 528 154q66 107 66 238q0 320 -318 413q-114 43 -404 43h-317v-1454h-48zM119 0l5 1378l4 4h5l346 -4q532 0 532 -385q0 -218 -175 -285q-79 -34 -322 -34 q-101 0 -231 6l-2 24q100 -6 185 -6q441 0 488 148q29 72 29 123v71q-20 195 -219 271q-36 38 -531 38h-81v-1349h-33zM233 0l2 1264h292q264 0 337 -119q33 -60 33 -138v-19q0 -152 -118 -195q-73 -23 -205 -23h-294l-2 28h338h16q201 0 232 124l10 80q0 151 -124 205 q-80 33 -266 33h-223v-1240h-28z" />
<glyph unicode="q" horiz-adv-x="1619" d="M0 736v5q0 456 437 693q156 68 308 68h17q377 0 624 -346q120 -194 120 -415q0 -156 -48 -240l-59 13q39 108 39 218v17q0 363 -330 587q-169 98 -342 98h-26q-324 0 -548 -291q-123 -183 -123 -381v-39q0 -288 248 -513q196 -157 441 -157q234 0 427 50l215 -102h-120 l-91 21q-196 -38 -436 -38q-405 0 -654 381q-99 185 -99 371zM146 749q0 312 286 514q158 93 321 93q343 0 543 -336q65 -146 65 -279q0 -116 -48 -223l-21 9q39 98 39 201v17q0 343 -343 535q-119 47 -226 47h-4q-334 0 -527 -338q-56 -126 -56 -227v-47q0 -208 176 -389 q183 -167 411 -167q222 0 410 69l396 -227h-60l-345 184q-188 -52 -401 -52h-17q-337 0 -531 330q-68 134 -68 286zM265 749q0 271 265 433q112 51 202 51h43q218 0 380 -213q85 -132 85 -279q0 -105 -55 -210l-18 9q43 107 43 192v21q0 278 -290 424q-96 30 -171 30 q-271 0 -415 -273q-39 -85 -39 -176v-30q0 -209 189 -359q124 -86 248 -86h43q206 0 362 98l596 -380h-53l-543 333q-161 -81 -388 -81q-261 0 -420 248q-64 117 -64 248z" />
<glyph unicode="r" horiz-adv-x="1420" d="M10 0v1502l660 -1q675 0 675 -513q0 -297 -276 -404q-106 -33 -147 -33l563 -551h-59q-482 457 -608 589v5h47q216 0 366 166q66 107 66 238q0 320 -318 413q-114 43 -404 43h-517v-1454h-48zM129 0l5 1378l4 4h5l546 -4q532 0 532 -385q0 -218 -175 -285 q-112 -48 -300 -48h-90v-4l667 -656h-40l-698 679v5h90q425 0 489 162q29 72 29 123v71q-20 195 -219 271q-36 38 -731 38h-81v-1349h-33zM243 0l2 1264h492q264 0 337 -119q33 -60 33 -138v-19q0 -152 -118 -195q-73 -23 -205 -23h-422l795 -766l-31 -4l-838 798h538h16 q201 0 232 124l10 80q0 151 -124 205q-80 33 -266 33h-423v-1240h-28z" />
<glyph unicode="s" horiz-adv-x="1144" d="M-20 1050v7q0 444 634 444h501l-36 -42h-401q-497 0 -606 -212q-50 -97 -50 -197q0 -318 409 -366q445 0 500 -99q36 -77 36 -134v-7q0 -251 -418 -251h-33h-339l36 40h324q280 0 345 84q47 50 47 116q0 12 -2 25q-10 176 -235 176h-134q-578 0 -578 416zM22 0l14 21h529 q458 0 578 310q14 32 14 92v56q0 239 -324 328q-113 27 -431 39q-148 15 -168 84q-21 0 -28 120v14q0 226 345 226h380l-14 -22h-317q-314 0 -352 -112l-21 -106q0 -152 125 -176q640 -10 756 -190q70 -116 70 -219v-21q0 -290 -296 -395q-154 -49 -331 -49h-529zM107 98 l14 22h388q535 0 535 345q0 282 -486 282q-451 0 -451 265v73q0 184 197 261q107 42 240 42h472l-14 -21h-402q-472 0 -472 -310v-14q0 -181 176 -247q85 -26 393 -32q243 -43 312 -123q56 -78 56 -176v-42q0 -226 -296 -303q-107 -21 -204 -21z" />
<glyph unicode="t" horiz-adv-x="1346" d="M-22 1432l1 70h1381v-70h-1382zM-21 1194l1 39l600 -1v-1231h-39v1192zM-21 1351h1382l-1 -38h-657v-1312h-42v1312h-681zM780 1v1231h581v-39h-538v-1192h-43z" />
<glyph unicode="u" horiz-adv-x="1380" d="M28 768v734h55v-703q0 -523 392 -705q127 -39 242 -39q482 0 572 603l8 157v687h55v-742q0 -541 -407 -721q-111 -39 -235 -39h-24q-471 0 -634 533q-24 139 -24 235zM169 736v766h31v-335l-7 -384q0 -439 344 -587l126 -24h86q294 0 407 353q24 117 31 266l-7 400v311 h31v-766q0 -414 -313 -564q-91 -31 -157 -31h-71q-340 0 -477 415zM294 752v750h32v-758q0 -361 305 -446h102q207 0 290 227q31 106 31 211v766h32v-734q0 -417 -282 -494l-87 -8h-23q-261 0 -368 282q-32 115 -32 204z" />
<glyph unicode="v" horiz-adv-x="1372" d="M3 1501h24l652 -1440l645 1436h30l-675 -1501zM125 1497h29l525 -1204l538 1204h31l-569 -1269zM273 1497h48l358 -911l395 911h48l-443 -1000z" />
<glyph unicode="w" horiz-adv-x="1659" d="M28 12v1504h42v-1387l753 752l763 -752v1387h43v-1515l-806 805zM166 386v1130h42l1 -1036l614 594l656 -636v1077l32 1v-1153l-687 658zM293 1516h32v-697l498 447l519 -478l10 728h31l-10 -802l-550 509l-529 -479z" />
<glyph unicode="x" horiz-adv-x="1221" d="M0 1501l54 -1l435 -743l-428 -757h-50l418 754zM164 1497v3h50l415 -700l403 700h54l-429 -753l429 -743v-4h-50l-411 693l-400 -693h-56l427 747zM318 1501l82 -1l232 -389l222 389h82v-3l-307 -522zM336 0l293 536l314 -536h-82l-236 400l-207 -400h-82zM754 747 l428 753h54l-422 -750l429 -750h-54z" />
<glyph unicode="y" horiz-adv-x="1188" d="M-21 1491h55l427 -747v-744h-56v738zM142 1488l3 3h51l409 -702l400 702h55l-428 -750v-741h-60v741zM294 1488l3 3h81l228 -396l223 396h80v-3l-306 -526zM727 0v732l430 759h51l-418 -756v-735h-63z" />
<glyph unicode="z" horiz-adv-x="1391" d="M-32 1l809 1222h-789v33l857 1l-807 -1223h1326v-33h-1396zM-12 1346v27h1140l-844 -1232h1080v-32l-1145 -5l838 1236zM-12 1460v43l1416 -2l-808 -1223h768v-49l-864 -1l813 1232h-1325z" />
<glyph unicode="&#xc7;" horiz-adv-x="1200" d="M0 772q0 410 384 647q169 86 349 86q281 0 486 -188q-37 -31 -55 -31h-4q-193 152 -407 152h-40q-312 0 -533 -290q-113 -177 -113 -356v-39q0 -304 274 -522q181 -125 368 -125h94v4l-58 70l4 4h15l83 8l-12 16v8q102 14 243 101q15 -5 15 -11q-88 -76 -243 -114l55 -63 v-4q-62 -15 -94 -15q2 -9 71 -55q-58 -16 -137 -16h-24q-383 0 -627 369q-94 177 -94 364zM141 776q0 313 302 513q152 75 294 75q190 0 356 -126v-3l-19 -12h-4q-151 113 -333 113q-295 0 -486 -282q-82 -137 -82 -290q0 -289 270 -470q145 -86 286 -86v4l-8 23l75 35 l35 -51q0 -11 -82 -11h-16l12 -20l-8 -8q-298 0 -490 263q-102 155 -102 333zM259 780q0 247 243 408q117 58 235 58q121 0 247 -70v-12l-20 -8q-109 63 -235 63q-264 0 -404 -263q-39 -87 -39 -188q0 -273 278 -411q88 -32 161 -32h16q112 0 223 63l20 -8v-8 q-111 -74 -251 -74q-284 0 -435 282q-39 100 -39 200zM898 51v8l78 19v8q-32 7 -63 39v4q121 29 247 130h4q18 0 55 -32v-8q-133 -102 -235 -137v-4l117 -27v-43l-8 -8q-69 0 -195 51z" />
<glyph unicode="&#x2000;" horiz-adv-x="760" />
<glyph unicode="&#x2001;" horiz-adv-x="1521" />
<glyph unicode="&#x2002;" horiz-adv-x="760" />
<glyph unicode="&#x2003;" horiz-adv-x="1521" />
<glyph unicode="&#x2004;" horiz-adv-x="507" />
<glyph unicode="&#x2005;" horiz-adv-x="380" />
<glyph unicode="&#x2006;" horiz-adv-x="253" />
<glyph unicode="&#x2007;" horiz-adv-x="253" />
<glyph unicode="&#x2008;" horiz-adv-x="190" />
<glyph unicode="&#x2009;" horiz-adv-x="304" />
<glyph unicode="&#x200a;" horiz-adv-x="84" />
<glyph unicode="&#x202f;" horiz-adv-x="304" />
<glyph unicode="&#x205f;" horiz-adv-x="380" />
<glyph unicode="&#x25fc;" horiz-adv-x="1500" d="M0 0v1500h1500v-1500h-1500z" />
</font>
</defs>
</svg>
